<svg width="200" height="55" viewBox="0 0 200 55" fill="none" xmlns="http://www.w3.org/2000/svg">
<path d="M55.8069 6.53595H65.0075C67.3454 6.53595 69.0548 7.16441 70.1609 8.24535C71.2418 9.17547 71.7195 10.4324 71.7195 11.6642C71.7195 12.1418 71.7195 12.7451 71.5686 13.2227C71.267 14.002 70.7893 14.7813 70.1609 15.4098C69.8592 15.7114 69.5324 15.8874 69.2308 16.0382C70.3117 16.3399 71.267 16.9683 72.0463 17.7476C72.6747 18.5269 72.9764 19.457 72.9764 20.8648C72.9764 21.644 72.8255 22.5742 72.4987 23.2026C72.1971 23.8311 71.5686 24.4595 70.9402 24.912C70.1609 25.3896 69.3816 25.6913 68.6023 25.993C67.6722 26.2946 66.5661 26.2946 65.4852 26.2946H55.9578V6.48567H55.8069V6.53595ZM64.2283 14.6305C65.0075 14.6305 65.7868 14.4796 66.5661 14.1528C67.1946 13.8512 67.4962 13.2227 67.4962 12.5943C67.4962 11.9658 67.1946 11.3374 66.7169 11.0357C66.0885 10.5581 65.3092 10.4072 64.5299 10.5581H60.1559V14.7562H64.2031V14.6305H64.2283ZM65.3092 22.5993C66.0885 22.5993 66.8678 22.4485 67.6471 22.1217C68.2755 21.82 68.5772 21.1916 68.4263 20.4123C68.4263 19.7838 68.1247 19.1554 67.6471 18.8537C67.1694 18.552 66.2393 18.2252 65.1584 18.2252H60.005V22.5993H65.3092Z" fill="#F3BA2F"/>
<path d="M78.4062 6.53595H82.7803V26.4957H78.4062V6.53595Z" fill="#F3BA2F"/>
<path d="M89.4922 6.53595H93.5395L102.891 18.8537V6.53595H107.24V26.4957H103.519L93.6903 13.8512V26.4957H89.4922V6.53595Z" fill="#F3BA2F"/>
<path d="M120.513 6.38512H124.56L133.132 26.4957H128.607L126.747 21.9708H118.326L116.466 26.4957H111.941L120.513 6.38512ZM125.189 18.2252L122.549 11.6893L119.91 18.2252H125.189Z" fill="#F3BA2F"/>
<path d="M137.808 6.53595H141.855L151.207 18.8537V6.53595H155.581V26.4957H151.835L142.157 13.8512V26.4957H137.808V6.53595Z" fill="#F3BA2F"/>
<path d="M171.468 26.7974C170.06 26.7974 168.653 26.4957 167.421 26.0181C164.932 24.9372 163.047 23.0518 161.966 20.5631C161.488 19.3062 161.187 17.9236 161.187 16.5158C161.187 13.8763 162.267 11.2117 164.153 9.2006C165.083 8.27049 166.189 7.4912 167.421 7.01357C168.829 6.38511 170.236 6.23428 171.619 6.23428C172.398 6.23428 173.328 6.23428 174.108 6.38511C174.887 6.53594 175.515 6.68677 176.144 7.01357C176.772 7.31523 177.401 7.64203 177.853 7.94369C178.331 8.24535 178.934 8.72298 179.412 9.2006L176.772 12.4686C175.993 11.8401 175.214 11.2117 174.434 10.7592C173.655 10.3067 172.725 10.1307 171.795 10.1307C171.016 10.1307 170.236 10.2815 169.457 10.6083C168.678 10.91 168.049 11.3876 167.597 12.0161C167.144 12.6445 166.667 13.273 166.34 14.0523C166.038 14.8316 165.862 15.6109 165.862 16.3901C165.862 17.1694 166.013 18.0995 166.34 18.8788C166.667 19.6581 166.968 20.2866 167.597 20.915C168.678 22.1719 170.236 22.7753 171.795 22.7753C172.725 22.7753 173.831 22.6244 174.761 22.1468C175.54 21.6692 176.471 21.0659 177.099 20.4374L179.889 23.2278C179.412 23.7054 178.808 24.3087 178.331 24.7863C177.702 25.264 177.074 25.5656 176.471 25.8673C175.842 26.1689 175.063 26.4957 174.284 26.6466C173.177 26.7974 172.247 26.7974 171.468 26.7974Z" fill="#F3BA2F"/>
<path d="M184.892 6.53595H199.849V10.4324H189.09V14.4796H198.592V18.3761H189.09V22.5993H200V26.4957H184.892V6.53595Z" fill="#F3BA2F"/>
<path d="M61.4128 46.1287C60.3318 46.1287 59.2257 45.9779 58.2956 45.5003C57.3655 45.1986 56.4354 44.5701 55.4801 43.7909L57.0387 42.0815C57.6672 42.7099 58.2956 43.0116 59.0749 43.4892C59.8542 43.7909 60.6335 43.9668 61.4128 43.9668C62.0412 43.9668 62.6697 43.816 63.273 43.4892C63.7506 43.1875 63.9015 42.7099 63.9015 42.2323C63.9015 42.0815 63.9015 41.7547 63.7506 41.6038C63.5998 41.453 63.449 41.1262 63.273 40.9754C62.9713 40.8245 62.6445 40.6737 62.3429 40.4977C61.8653 40.3469 61.2619 40.1961 60.7843 40.0201C60.1559 39.8693 59.3766 39.7185 58.7481 39.3917C58.2705 39.2408 57.6672 38.914 57.3404 38.6124C57.0387 38.3107 56.7119 37.9839 56.4103 37.5314C56.1086 36.903 56.1086 36.2745 56.1086 35.822C56.1086 35.1936 56.2594 34.7411 56.4103 34.1126C56.5611 33.635 57.0387 33.1825 57.3404 32.8557C57.818 32.554 58.2705 32.2273 58.8989 32.0764C59.5274 31.9256 60.1559 31.7748 60.7592 31.7748C61.6893 31.7748 62.6194 31.9256 63.5747 32.2524C64.3539 32.554 65.1332 33.0317 65.9125 33.5093L64.6556 35.3695C64.0272 34.8919 63.3987 34.5903 62.7954 34.2886C62.1669 33.9869 61.5385 33.9869 60.9351 33.9869C60.3067 33.9869 59.6782 34.1378 59.2257 34.4646C58.9241 34.7662 58.5973 35.2438 58.5973 35.7215C58.5973 36.0231 58.5973 36.1991 58.7481 36.5008C58.8989 36.6516 59.0498 36.9784 59.2257 37.1292C59.5274 37.28 59.8542 37.4309 60.3067 37.6068C60.7843 37.7577 61.2368 37.9085 62.0161 38.0845C62.6445 38.2353 63.273 38.3861 64.0523 38.7129C64.5299 38.8638 64.9824 39.1906 65.46 39.4922C65.7617 39.7939 66.0885 40.2715 66.2393 40.5732C66.3901 41.0508 66.541 41.5033 66.541 42.1317C66.541 42.7602 66.3901 43.3886 66.2393 43.8411C65.9377 44.3188 65.6109 44.7712 65.1584 45.2489C64.6807 45.5505 64.2283 45.8773 63.5998 46.0282C62.8205 45.9779 62.0412 46.1287 61.4128 46.1287Z" fill="#F3BA2F"/>
<path d="M69.2056 31.9507H71.8703L76.0684 38.4867L80.4424 31.9507H83.0819V45.9779H80.5933V35.8472L76.2192 42.3831H76.0684L71.7195 35.8472V45.9779H69.2056V31.9507Z" fill="#F3BA2F"/>
<path d="M91.5033 31.7999H93.8411L99.9246 45.827H97.2851L95.8773 42.4082H89.3414L87.9336 45.827H85.4449L91.5033 31.7999ZM95.098 40.372L92.6094 34.7662L90.2715 40.372H95.098Z" fill="#F3BA2F"/>
<path d="M102.413 31.9507H108.648C109.427 31.9507 110.206 32.1016 110.985 32.2524C111.614 32.4032 112.242 32.8808 112.695 33.3333C112.996 33.635 113.323 34.1126 113.625 34.7411C113.776 35.2187 113.927 35.822 113.927 36.4505C113.927 36.9281 113.776 37.5314 113.625 38.009C113.474 38.4867 113.147 38.7883 112.996 39.266C112.695 39.5676 112.368 39.8944 111.916 40.1961C111.438 40.4977 110.985 40.6737 110.508 40.8245L114.253 46.1287H111.287L107.868 41.3022H104.751V46.1287H102.262L102.413 31.9507ZM108.497 38.8135C109.276 38.8135 110.055 38.6626 110.533 38.185C111.011 37.7074 111.312 37.1041 111.312 36.4756C111.312 35.8472 111.011 35.2187 110.533 34.7662C109.904 34.2886 109.125 34.1378 108.346 34.1378H104.751V38.8135H108.497Z" fill="#F3BA2F"/>
<path d="M120.337 34.1378H115.812V31.9507H127.2V34.1378H122.675V45.9779H120.186L120.337 34.1378Z" fill="#F3BA2F"/>
<path d="M142.333 46.1287C141.403 46.1287 140.473 45.9779 139.517 45.5002C137.808 44.721 136.4 43.4641 135.772 41.7546C135.47 40.8245 135.143 39.8944 135.294 38.9392C135.294 38.009 135.445 37.0789 135.772 36.1237C136.4 34.4143 137.808 33.0065 139.517 32.2272C140.447 31.9256 141.378 31.5988 142.484 31.5988C143.112 31.5988 143.741 31.5988 144.193 31.7496C144.671 31.9004 145.123 32.0513 145.601 32.2272C146.078 32.3781 146.38 32.7049 146.858 32.8557C147.159 33.1574 147.637 33.4842 147.939 33.7858L146.38 35.646C145.902 35.1684 145.299 34.7159 144.671 34.3891C144.042 34.0875 143.263 33.9115 142.484 33.9115C141.855 33.9115 141.227 34.0623 140.623 34.2132C139.995 34.5148 139.542 34.8416 139.065 35.2941C138.587 35.7717 138.286 36.2242 138.135 36.8527C137.984 37.4811 137.833 38.1096 137.833 38.7129C137.833 39.3414 137.984 39.9698 138.135 40.5731C138.286 41.1765 138.612 41.6541 139.065 42.1317C139.542 42.6094 139.995 42.911 140.623 43.2127C141.252 43.5143 141.88 43.6903 142.484 43.5143C143.263 43.5143 144.042 43.3635 144.671 43.0367C145.299 42.735 145.928 42.2574 146.531 41.629L148.089 43.1875C147.788 43.4892 147.31 43.9668 147.009 44.2685C146.531 44.5701 146.229 44.8969 145.752 45.0478C145.274 45.1986 144.822 45.5254 144.193 45.5254C143.565 46.1287 142.936 46.1287 142.333 46.1287Z" fill="#F3BA2F"/>
<path d="M150.578 31.9507H152.916V37.7074H159.628V31.9507H162.117V45.9779H159.628V40.0452H152.916V45.9779H150.578V31.9507Z" fill="#F3BA2F"/>
<path d="M170.689 31.7999H173.027L179.11 45.827H176.471L175.063 42.4082H168.527L167.119 45.827H164.63L170.689 31.7999ZM174.133 40.372L171.795 34.7662L169.457 40.372H174.133Z" fill="#F3BA2F"/>
<path d="M181.599 31.9507H184.113V45.9779H181.599V31.9507Z" fill="#F3BA2F"/>
<path d="M187.833 31.9507H190.02L197.511 41.6038V31.9507H200V45.9779H197.964L190.347 35.998V45.9779H187.833V31.9507Z" fill="#F3BA2F"/>
<path d="M28.3811 45.0478V51.1312L23.0769 54.2484L17.9236 51.1312V45.0478L23.0769 48.1649L28.3811 45.0478ZM0 24.007L5.15334 27.1242V37.5566L14.0272 42.8607V48.9442L0 40.6737V24.007ZM46.1539 24.007V40.6988L31.9759 48.9693V42.8859L40.8497 37.5817V27.1493L46.1539 24.007ZM31.9507 15.7366L37.2549 18.8537V24.9372L28.3811 30.2413V40.8245L23.2278 43.9417L18.0995 40.8245V30.2162L8.89895 24.912V18.8286L14.2031 15.7114L23.0769 21.0156L31.9507 15.7366ZM8.89895 29.2861L14.0523 32.4032V38.4867L8.89895 35.3695V29.2861ZM37.2549 29.2861V35.3695L32.1016 38.4867V32.4032L37.2549 29.2861ZM5.15334 10.4324L10.4575 13.5495L5.15334 16.6667V22.7501L0 19.633V13.5495L5.15334 10.4324ZM41.0005 10.4324L46.3047 13.5495V19.633L41.0005 22.7501V16.6667L35.8472 13.5495L41.0005 10.4324ZM23.0769 10.4324L28.3811 13.5495L23.0769 16.6667L17.9236 13.5495L23.0769 10.4324ZM23.0769 0L37.2549 8.27049L32.1016 11.3876L23.2278 6.08345L14.178 11.3876L9.02464 8.27049L23.0769 0Z" fill="#F3BA2F"/>
</svg>
