<svg width="200" height="51" viewBox="0 0 200 51" fill="none" xmlns="http://www.w3.org/2000/svg">
<g clip-path="url(#clip0_3_60)">
<path d="M47.81 12.8422L46.6996 10.9373C46.3911 10.3843 45.7125 10.2 45.1573 10.5072C45.0956 10.5687 44.9722 10.6301 44.9106 10.6916L42.3812 13.2108C42.0111 13.5795 41.9494 14.194 42.2579 14.6241C43.1832 16.0373 43.9235 17.5735 44.4787 19.1711C47.9951 29.5554 42.3812 40.8 31.9556 44.3024C29.9198 44.9783 27.7606 45.347 25.6015 45.347C22.3319 45.347 19.124 44.5482 16.2862 43.012L20.6046 38.7108C27.9457 41.4759 36.1505 37.7891 38.9266 30.4771C40.2838 26.8518 40.0987 22.7964 38.4331 19.294C38.1863 18.741 37.5077 18.4952 36.8908 18.741C36.7674 18.8024 36.644 18.8639 36.5824 18.9867L33.9914 21.506C33.6829 21.8132 33.6212 22.1819 33.6829 22.5506L33.9297 23.4723C34.9784 28.0193 32.1407 32.6277 27.5756 33.6723C25.4781 34.1638 23.2573 33.8566 21.4065 32.7506L20.2961 32.0747C19.8643 31.8289 19.3091 31.8904 18.9389 32.259L8.45157 42.7048C8.01974 43.1349 8.01974 43.8723 8.45157 44.3024C8.51327 44.3638 8.51327 44.3638 8.57496 44.4253L10.1172 45.5928C14.4972 49.1566 19.9877 51 25.6015 51C39.7286 51 51.203 39.5711 51.203 25.4386C51.203 21.0145 50.0308 16.7132 47.81 12.8422Z" fill="url(#paint0_linear_3_60)"/>
<path d="M41.1474 5.28434C36.7057 1.84337 31.2153 0 25.6015 0C11.4744 0 0 11.4289 0 25.5614C0 29.9855 1.17212 34.3482 3.33128 38.1578L4.4417 40.0626C4.75015 40.6157 5.42875 40.8 5.98396 40.4928C6.04565 40.4313 6.16903 40.3699 6.23072 40.3084L8.76002 37.7892C9.13017 37.4205 9.19186 36.806 8.8834 36.3759C7.95805 34.9626 7.21777 33.4265 6.66255 31.8289C3.14621 21.4446 8.76002 10.2 19.1857 6.69759C21.2215 6.02169 23.3806 5.65301 25.5398 5.65301C28.8094 5.65301 32.0173 6.45181 34.855 7.98795L30.5367 12.2892C23.1956 9.5241 14.9907 13.2108 12.2147 20.5229C11.5978 22.1205 11.2893 23.841 11.2893 25.5614C11.2893 25.8072 11.351 26.8518 11.351 27.0361C11.5361 28.6337 11.9679 30.2313 12.7082 31.706C12.955 32.259 13.6336 32.5048 14.2505 32.259C14.3738 32.1976 14.4972 32.1361 14.5589 32.0132L17.1499 29.4325C17.4584 29.1253 17.52 28.7566 17.4584 28.388L17.2733 27.4663C16.2246 22.9193 19.0623 18.3108 23.6274 17.2663C25.7249 16.7747 27.9457 17.0819 29.7964 18.188L30.9068 18.8639C31.3387 19.1096 31.8939 19.0482 32.264 18.6795L42.7514 8.23373C43.1832 7.80361 43.1832 7.06626 42.7514 6.63614C42.6897 6.5747 42.6897 6.5747 42.628 6.51325L41.1474 5.28434Z" fill="url(#paint1_linear_3_60)"/>
<path d="M84.269 32.5663C83.8988 32.259 83.2819 32.259 82.9118 32.6277C81.2461 33.9181 79.3337 35.0855 76.5577 35.0855C71.4374 35.0855 67.3041 30.7843 67.3041 25.5614C67.3041 20.3385 71.4374 15.9759 76.5577 15.9759C78.7785 15.9759 81.1228 16.8976 82.9118 18.4337C83.0968 18.6795 83.4053 18.8024 83.7138 18.8024C83.9605 18.8024 84.2073 18.6181 84.3924 18.4337L86.058 16.7132C86.2431 16.5289 86.3664 16.2217 86.3664 15.9145C86.3664 15.6072 86.2431 15.3614 85.9963 15.1157C83.0968 12.5964 80.1974 11.4904 76.5577 11.4904C68.7847 11.4904 62.4306 17.8193 62.4306 25.6229C62.4306 33.3651 68.723 39.694 76.5577 39.694C80.1357 39.7554 83.5287 38.3422 86.058 35.8843C86.3047 35.6386 86.4281 35.3313 86.3664 35.0241C86.3664 34.7783 86.2431 34.5325 86.058 34.3482L84.269 32.5663Z" fill="white"/>
<path d="M96.3603 11.7976H93.831C93.2758 11.7976 92.7822 12.2891 92.7822 12.8422V38.1578C92.7822 38.7108 93.2758 39.2024 93.831 39.2024H96.3603C96.9155 39.2024 97.409 38.7108 97.409 38.1578V12.8422C97.409 12.2891 96.9772 11.7976 96.3603 11.7976Z" fill="white"/>
<path d="M126.157 20.3385C126.157 15.6687 122.27 11.7976 117.52 11.7976H107.156C106.539 11.7976 106.107 12.2891 106.107 12.8422V38.1578C106.107 38.7723 106.601 39.2024 107.156 39.2024H109.624C110.179 39.2024 110.672 38.7108 110.672 38.1578V28.7566H115.854L120.851 38.7108C121.036 39.0181 121.407 39.2638 121.777 39.2638H124.738C125.108 39.2638 125.478 39.0795 125.663 38.7723C125.848 38.4036 125.848 38.0349 125.663 37.6662L120.605 28.265C124.059 26.7289 126.157 23.7181 126.157 20.3385ZM121.468 20.4C121.468 22.7964 119.494 24.8241 117.15 24.8241H110.672V16.2217H117.212C119.494 16.1602 121.468 18.1265 121.468 20.4Z" fill="white"/>
<path d="M153.239 32.5663C152.869 32.259 152.252 32.259 151.882 32.6277C150.216 33.9181 148.304 35.0855 145.527 35.0855C140.407 35.0855 136.274 30.7843 136.274 25.5614C136.274 20.3385 140.407 15.9759 145.466 15.9759C147.687 15.9759 150.031 16.8976 151.82 18.4337C152.005 18.6795 152.313 18.8024 152.622 18.8024C152.869 18.8024 153.115 18.6181 153.3 18.4337L154.966 16.7132C155.151 16.5289 155.275 16.2217 155.275 15.9145C155.275 15.6072 155.151 15.3614 154.904 15.1157C152.005 12.5964 149.105 11.4904 145.466 11.4904C137.693 11.4904 131.339 17.8193 131.339 25.6229C131.339 33.3651 137.631 39.694 145.466 39.694C149.044 39.7554 152.437 38.3422 154.966 35.8843C155.213 35.6386 155.336 35.3313 155.275 35.0241C155.275 34.7783 155.151 34.5325 154.966 34.3482L153.239 32.5663Z" fill="white"/>
<path d="M176.373 34.9626H166.379V12.8422C166.379 12.2891 165.885 11.7976 165.33 11.7976H162.801C162.184 11.7976 161.752 12.2891 161.752 12.8422V38.1578C161.752 38.7723 162.246 39.2024 162.801 39.2024H176.373C176.99 39.2024 177.421 38.7108 177.421 38.1578V36.0687C177.421 35.4542 176.99 34.9626 176.373 34.9626Z" fill="white"/>
<path d="M198.951 16.0988C199.568 16.0988 200 15.6072 200 15.0542V12.9036C200 12.2892 199.506 11.859 198.951 11.859H183.714C183.097 11.859 182.665 12.3506 182.665 12.9036V38.2193C182.665 38.8337 183.159 39.2639 183.714 39.2639H198.951C199.568 39.2639 200 38.7723 200 38.2193V36.1301C200 35.5157 199.506 35.0855 198.951 35.0855H187.23V27.4663H197.039C197.656 27.4663 198.088 26.9747 198.088 26.4217V24.2711C198.088 23.7181 197.594 23.2265 197.039 23.2265H187.23V16.0988H198.951Z" fill="white"/>
</g>
<defs>
<linearGradient id="paint0_linear_3_60" x1="16.5496" y1="52.6002" x2="52.4473" y2="16.5597" gradientUnits="userSpaceOnUse">
<stop stop-color="#B090F5"/>
<stop offset="1" stop-color="#5FBFFF"/>
</linearGradient>
<linearGradient id="paint1_linear_3_60" x1="-1.4145" y1="34.2926" x2="34.4882" y2="-1.75082" gradientUnits="userSpaceOnUse">
<stop stop-color="#68D7FA"/>
<stop offset="1" stop-color="#4EE498"/>
</linearGradient>
<clipPath id="clip0_3_60">
<rect width="200" height="51" fill="white"/>
</clipPath>
</defs>
</svg>
