<svg width="200" height="35" viewBox="0 0 200 35" fill="none" xmlns="http://www.w3.org/2000/svg">
<path d="M29.4618 20.5632C28.8619 20.9298 28.162 20.9965 27.6287 20.6966C26.9622 20.2966 26.5622 19.3968 26.5622 18.1636V14.3976C26.5622 12.5979 25.8624 11.2981 24.6626 10.9648C22.6296 10.3649 21.0965 12.8645 20.5299 13.7977L16.9305 19.5634V12.4646C16.8972 10.8315 16.3639 9.86503 15.3641 9.56508C14.6976 9.36511 13.6977 9.4651 12.7312 10.9315L4.69922 23.796C3.63273 21.763 3.06616 19.4968 3.06616 17.1971C3.06616 9.43176 9.29845 3.13281 16.9305 3.13281C24.5626 3.13281 30.7949 9.43176 30.7949 17.1971V17.2305V17.2638C30.8615 18.7635 30.3949 19.9633 29.4618 20.5632ZM33.861 17.1971V17.1638V17.1305C33.8277 7.69872 26.229 0 16.9305 0C7.59873 0 0 7.69872 0 17.1971C0 26.6622 7.59873 34.3943 16.9305 34.3943C21.2298 34.3943 25.2958 32.7612 28.4286 29.795C29.0618 29.1951 29.0952 28.2286 28.4953 27.5954C27.9287 26.9622 26.9622 26.9288 26.3289 27.4954C26.3289 27.4954 26.3289 27.4954 26.2956 27.5287C23.7627 29.9283 20.3633 31.2948 16.8639 31.2948C12.7645 31.2948 9.09848 29.4951 6.56557 26.6289L13.7977 15.0308V20.3966C13.7977 22.9628 14.7975 23.796 15.6307 24.0293C16.4639 24.2626 17.7304 24.096 19.0968 21.9297L23.0628 15.4974C23.1961 15.2975 23.2961 15.0975 23.4294 14.9642V18.2303C23.4294 20.6299 24.3959 22.5629 26.0623 23.4961C27.5621 24.3626 29.4618 24.2626 31.0282 23.2961C32.9612 22.0297 33.9943 19.83 33.861 17.1971ZM57.4571 11.3314C57.857 11.5647 58.2236 12.1313 58.2236 12.6312C58.2236 13.4311 57.5571 14.0977 56.7905 14.0977C56.5906 14.0977 56.4239 14.031 56.2573 13.9977C55.3574 13.3311 54.2243 12.8979 53.0245 12.8979C50.1916 12.8979 48.2586 15.1975 48.2586 18.0637C48.2586 20.9298 50.225 23.1961 53.0245 23.1961C54.4243 23.1961 55.6907 22.6296 56.6239 21.7297C56.8572 21.5631 57.1571 21.4631 57.4571 21.4631C58.2236 21.4631 58.8235 22.063 58.8235 22.8295C58.8235 23.3294 58.5236 23.7627 58.157 23.996C56.7905 25.1625 54.9575 25.929 53.0578 25.929C48.7252 25.929 45.1925 22.3629 45.1925 17.9637C45.1925 13.5644 48.7252 9.99833 53.0578 9.99833C54.6576 9.96501 56.1906 10.4649 57.4571 11.3314ZM65.3891 14.6642C68.3553 14.6642 70.8215 17.1638 70.8215 20.2633C70.8215 23.3295 68.3219 25.9623 65.3891 25.9623C62.2896 25.9623 59.7234 23.3628 59.7234 20.2633C59.7234 17.1638 62.2896 14.6642 65.3891 14.6642ZM65.3558 23.1961C66.6556 23.1961 67.7554 21.963 67.7554 20.2966C67.7554 18.6302 66.6556 17.5637 65.3558 17.5637C63.956 17.5637 62.7895 18.5969 62.7895 20.2966C62.7895 21.9297 63.956 23.1961 65.3558 23.1961ZM72.6879 24.2293V16.3639C72.6879 15.4974 73.3544 14.7975 74.221 14.7975C75.0542 14.7975 75.754 15.4974 75.754 16.3639V24.2293C75.754 25.0958 75.0542 25.7957 74.221 25.7957C73.3878 25.7957 72.6879 25.0625 72.6879 24.2293ZM72.4546 11.8314C72.4546 10.7982 73.2545 9.99833 74.221 9.99833C75.2208 9.99833 76.0207 10.8315 76.0207 11.8314C76.0207 12.8312 75.2208 13.6311 74.221 13.6311C73.2211 13.5977 72.4546 12.7979 72.4546 11.8314ZM81.6197 19.9633V24.2293C81.6197 25.0958 80.9198 25.7957 80.0867 25.7957C79.2535 25.7957 78.5536 25.0958 78.5536 24.2293V15.9973C78.5536 15.3308 79.0868 14.7975 79.7534 14.7975C80.4199 14.7975 80.9198 15.3641 80.9198 15.9973C82.153 14.8309 83.2528 14.6642 84.286 14.6642C87.3521 14.6642 88.7185 16.9638 88.7185 19.5967V24.2293C88.7185 25.0958 88.0187 25.7957 87.1855 25.7957C86.3523 25.7957 85.6524 25.0958 85.6524 24.2293V19.9633C85.6524 18.6302 85.4858 17.4971 83.5527 17.4971C82.1863 17.4971 81.6197 18.6302 81.6197 19.9633ZM98.6502 21.5964C98.2836 21.5964 98.0503 21.4298 97.8504 21.1965L94.2843 17.3304V24.2293C94.2843 25.0958 93.5844 25.7957 92.7512 25.7957C91.918 25.7957 91.2181 25.0958 91.2181 24.2293V10.5649C91.3181 10.3316 91.5514 10.165 91.7847 10.165C92.0513 10.165 92.2846 10.3983 92.4513 10.5649L98.1503 16.9638C98.3169 17.1638 98.5169 17.2638 98.6502 17.2638C98.7502 17.2638 98.9835 17.1638 99.1501 16.9638L104.849 10.5649C105.016 10.3983 105.216 10.165 105.516 10.165C105.782 10.165 106.016 10.3316 106.082 10.5649V24.2293C106.082 25.0958 105.416 25.7957 104.549 25.7957C103.716 25.7957 103.016 25.0958 103.016 24.2293V17.3304L99.4501 21.1965C99.1835 21.4298 98.9502 21.5964 98.6502 21.5964ZM113.381 23.1961C114.748 23.1961 115.914 21.963 115.914 20.2966C115.914 18.6302 114.714 17.5304 113.381 17.5304C112.048 17.5304 110.948 18.6636 110.948 20.2966C110.948 21.8963 112.015 23.1961 113.381 23.1961ZM116.647 24.5959L116.581 24.2293C115.981 25.3958 114.081 25.929 112.881 25.929C110.015 25.929 107.882 23.3294 107.882 20.23C107.882 17.1638 110.048 14.6309 113.048 14.6309C113.548 14.6309 115.281 14.7642 116.614 16.3306L116.681 15.964C116.681 15.2974 117.18 14.7642 117.847 14.7642C118.514 14.7642 119.047 15.3308 119.047 15.964V24.5626C119.047 25.2291 118.514 25.7624 117.847 25.7624C117.147 25.7957 116.647 25.2291 116.647 24.5959ZM127.479 17.4971H127.145C125.212 17.5971 124.846 18.6969 124.846 19.9633V24.2293C124.846 25.0958 124.146 25.7957 123.313 25.7957C122.48 25.7957 121.78 25.0958 121.78 24.2293V15.9973C121.78 15.3308 122.313 14.7975 122.98 14.7975C123.646 14.7975 124.146 15.3641 124.146 15.9973C125.279 14.9308 126.212 14.6976 127.145 14.6642H127.445C128.179 14.6642 128.845 15.2975 128.845 16.0973C128.879 16.8305 128.212 17.4971 127.479 17.4971ZM139.31 23.4961C139.443 23.7294 139.543 23.9627 139.543 24.2293C139.543 25.0292 138.81 25.7624 138.01 25.7624C137.477 25.7624 137.011 25.3624 136.644 24.8959L133.111 20.7965V24.196C133.111 25.0625 132.411 25.7624 131.578 25.7624C130.745 25.7624 130.045 25.0625 130.045 24.196V11.6981C130.045 10.8315 130.712 10.1316 131.578 10.1316C132.445 10.1316 133.111 10.8315 133.111 11.6981V19.4968L136.644 15.5974C137.011 15.1975 137.444 14.7642 137.977 14.7642C138.744 14.7642 139.443 15.4641 139.443 16.264C139.443 16.4973 139.377 16.7639 139.243 16.9638L136.444 20.03L139.31 23.4961ZM145.309 17.5304C144.476 17.5304 143.109 17.9637 143.109 19.2635H147.542C147.509 17.9637 146.109 17.5304 145.309 17.5304ZM149.308 21.2298H143.109C143.109 23.0628 144.876 23.3628 145.642 23.3628C146.209 23.3628 147.009 23.2628 147.642 22.9628C147.842 22.8295 148.142 22.7295 148.442 22.7295C149.108 22.7295 149.675 23.2961 149.675 23.996C149.675 24.4626 149.375 24.8625 149.008 25.0958C148.075 25.7957 146.842 25.9623 145.676 25.9623C142.576 25.9623 140.01 24.296 140.01 20.3966C140.01 17.3304 141.576 14.6642 145.242 14.6642C148.209 14.6642 150.442 16.5972 150.508 20.03C150.508 20.6632 149.975 21.2298 149.308 21.2298ZM157.84 25.929H157.007C154.674 25.929 153.308 24.8959 153.308 21.2631V17.4971H152.508C151.775 17.4971 151.141 16.8305 151.141 16.0973C151.141 15.2975 151.808 14.6642 152.508 14.6642H153.308V11.7647C153.308 10.8982 153.974 10.1983 154.841 10.1983C155.674 10.1983 156.374 10.8982 156.374 11.7647V14.6642H157.64C158.374 14.6642 159.007 15.2975 159.007 16.0973C159.007 16.8305 158.34 17.4971 157.64 17.4971H156.374V20.6632C156.374 22.7629 156.474 23.1961 157.407 23.1961H157.84C158.574 23.1961 159.207 23.796 159.207 24.5626C159.207 25.2958 158.574 25.929 157.84 25.929ZM172.671 11.3314C173.071 11.5647 173.438 12.1313 173.438 12.6312C173.438 13.4311 172.771 14.0977 172.005 14.0977C171.805 14.0977 171.638 14.031 171.471 13.9977C170.572 13.3311 169.438 12.8979 168.239 12.8979C165.406 12.8979 163.473 15.1975 163.473 18.0637C163.473 20.9298 165.439 23.1961 168.239 23.1961C169.638 23.1961 170.905 22.6296 171.838 21.7297C172.071 21.5631 172.371 21.4631 172.671 21.4631C173.438 21.4631 174.038 22.063 174.038 22.8295C174.038 23.3294 173.738 23.7627 173.371 23.996C172.005 25.1625 170.172 25.929 168.272 25.929C163.939 25.929 160.407 22.3629 160.407 17.9637C160.407 13.5644 163.939 9.99833 168.272 9.99833C169.872 9.96501 171.438 10.4649 172.671 11.3314ZM180.437 23.1961C181.803 23.1961 182.97 21.963 182.97 20.2966C182.97 18.6302 181.77 17.5304 180.437 17.5304C179.07 17.5304 178.004 18.6636 178.004 20.2966C178.004 21.8963 179.103 23.1961 180.437 23.1961ZM183.703 24.5959L183.636 24.2293C183.036 25.3958 181.136 25.929 179.937 25.929C177.07 25.929 174.938 23.3294 174.938 20.23C174.938 17.1638 177.104 14.6309 180.103 14.6309C180.603 14.6309 182.336 14.7642 183.669 16.3306L183.736 15.964C183.736 15.2974 184.236 14.7642 184.903 14.7642C185.569 14.7642 186.102 15.3308 186.102 15.964V24.5626C186.102 25.2291 185.569 25.7624 184.903 25.7624C184.203 25.7957 183.703 25.2291 183.703 24.5959ZM194.468 23.1961C195.834 23.1961 196.901 21.8963 196.901 20.2966C196.901 18.6302 195.801 17.5304 194.468 17.5304C193.101 17.5304 191.935 18.6302 191.935 20.2966C191.935 21.963 193.101 23.1961 194.468 23.1961ZM191.935 25.0292V28.9285C191.935 29.795 191.235 30.4949 190.402 30.4949C189.568 30.4949 188.869 29.795 188.869 28.9285V15.9973C188.869 15.3308 189.402 14.7975 190.068 14.7975C190.735 14.7975 191.235 15.3641 191.235 16.1306C192.368 14.9642 193.768 14.6642 194.834 14.6642C197.8 14.6642 200 17.1638 200 20.2633C200 23.3295 197.9 25.9623 195.001 25.9623C194.101 25.929 192.768 25.6624 191.935 25.0292Z" fill="white"/>
</svg>
