<svg width="200" height="53" viewBox="0 0 200 53" fill="none" xmlns="http://www.w3.org/2000/svg">
<path d="M82.6772 20.7708C82.1438 18.637 80.7769 17.1034 78.0763 17.1034C74.1089 17.1034 72.4753 20.6041 72.4753 24.1381C72.4753 27.6721 74.1422 31.1728 78.0763 31.1728C80.9436 31.1728 82.5105 29.039 82.7773 26.3385H85.9445C85.6778 30.7727 82.5439 33.8066 78.0763 33.8066C72.5419 33.8066 69.2413 29.4058 69.2413 24.1381C69.2413 18.8704 72.5419 14.4695 78.0763 14.4695C82.2438 14.5029 85.5111 16.8033 85.9112 20.7708H82.6772ZM87.8782 26.6719C87.8782 22.5711 90.3454 19.6372 94.6129 19.6372C98.8804 19.6372 101.348 22.5711 101.348 26.6719C101.348 30.7727 98.8804 33.74 94.6129 33.74C90.3454 33.74 87.8782 30.7727 87.8782 26.6719ZM98.4136 26.6719C98.4136 24.3715 97.2467 21.971 94.6129 21.971C91.979 21.971 90.8122 24.3715 90.8122 26.6719C90.8122 28.9724 91.979 31.4062 94.6129 31.4062C97.2467 31.4062 98.4136 29.0057 98.4136 26.6719ZM103.881 14.903H106.815V17.7035H103.881V14.903ZM103.881 20.004H106.815V33.3732H103.881V20.004ZM110.049 20.004H112.85V21.971L112.916 22.0377C113.783 20.5707 115.35 19.6372 117.084 19.6706C119.984 19.6706 121.818 21.2375 121.818 24.2048V33.3732H118.884V24.9716C118.818 22.8712 118.017 21.971 116.284 21.971C114.317 21.971 113.05 23.5046 113.05 25.4717V33.3732H110.116V20.004H110.049ZM141.422 33.3732H139.355L138.855 31.2061C137.121 33.1732 135.554 33.8066 133.287 33.8066C127.753 33.8066 124.452 29.4058 124.452 24.1381C124.452 18.8704 127.753 14.4695 133.287 14.4695C137.321 14.4695 140.722 16.6033 141.189 20.7708H138.021C137.721 18.337 135.588 17.1034 133.254 17.1034C129.286 17.1034 127.653 20.6041 127.653 24.1381C127.653 27.6721 129.32 31.1728 133.254 31.1728C136.554 31.2395 138.388 29.2391 138.421 26.1051H133.52V23.638H141.389L141.422 33.3732ZM146.823 27.4387C146.823 29.5391 147.957 31.4062 150.424 31.4062C152.124 31.4062 153.158 30.6727 153.691 29.1724H156.492C155.858 32.1063 153.358 33.74 150.424 33.74C146.223 33.74 143.889 30.8061 143.889 26.7053C143.889 22.9045 146.39 19.6372 150.357 19.6372C154.558 19.6372 157.158 23.438 156.658 27.4387H146.823ZM153.691 25.505C153.591 23.638 152.324 21.971 150.324 21.971C148.29 21.971 146.89 23.5046 146.79 25.505H153.691ZM167.927 24.4715C167.694 22.8378 166.494 21.971 164.86 21.971C163.326 21.971 161.192 22.7712 161.192 26.8386C161.192 29.0724 162.159 31.4062 164.727 31.4062C166.427 31.4062 167.627 30.2726 167.894 28.3389H170.828C170.294 31.8062 168.161 33.7066 164.693 33.7066C160.492 33.7066 158.192 30.7394 158.192 26.8053C158.192 22.7712 160.392 19.6039 164.793 19.6039C167.894 19.6039 170.528 21.1709 170.828 24.4382H167.927V24.4715ZM173.362 14.903H176.295V25.405L181.63 20.004H185.264L180.129 24.9049L185.731 33.3732H182.13L178.029 26.872L176.262 28.5723V33.3732H173.328V14.903H173.362ZM186.531 26.6719C186.531 22.5711 188.998 19.6372 193.265 19.6372C197.566 19.6372 200 22.5711 200 26.6719C200 30.7727 197.533 33.74 193.265 33.74C188.998 33.74 186.531 30.7727 186.531 26.6719ZM197.099 26.6719C197.099 24.3715 195.933 21.971 193.299 21.971C190.665 21.971 189.498 24.3715 189.498 26.6719C189.498 28.9724 190.665 31.4062 193.299 31.4062C195.933 31.4062 197.099 29.0057 197.099 26.6719Z" fill="white"/>
<path d="M52.8714 26.3385C52.9048 37.0406 46.5369 46.7091 36.6683 50.8433C26.7997 54.9774 15.4308 52.777 7.82937 45.2422C0.227892 37.7074 -2.07256 26.3385 1.96156 16.4366C5.99568 6.53468 15.6309 0.0667503 26.2996 7.06605e-05C40.9358 -0.0332691 52.8048 11.7357 52.8714 26.3385Z" fill="#8DC63F"/>
<path d="M50.9044 26.3385C50.9377 36.2405 45.0366 45.1755 35.9015 49.0096C26.7664 52.8437 16.2643 50.7766 9.22964 43.8419C2.19494 36.8739 0.0611957 26.3719 3.79525 17.2368C7.52931 8.06832 16.431 2.10049 26.2996 2.03381C39.8356 1.96713 50.8377 12.8359 50.9044 26.3385Z" fill="#F9E988"/>
<path d="M26.8997 3.60077C28.4667 3.33405 30.0337 3.33405 31.6007 3.60077C33.1676 3.83414 34.7013 4.36758 36.1015 5.10106C37.5018 5.86787 38.702 6.90141 39.9023 7.86826C41.1025 8.83512 42.3027 9.83531 43.4363 10.9355C44.6032 12.0024 45.6034 13.236 46.4369 14.5696C47.3037 15.9032 48.0038 17.3368 48.5373 18.8037C49.5708 21.8043 49.9042 25.0383 49.4041 28.1055H49.2374C48.7373 25.0383 48.0372 22.1377 46.937 19.3705C46.4369 17.9702 45.8034 16.6033 45.1366 15.303C44.4031 14.0028 43.6363 12.7025 42.7695 11.5023C41.9027 10.2687 40.8024 9.16852 39.5689 8.26834C38.3353 7.36817 36.9017 6.80139 35.5348 6.26795C34.1678 5.73452 32.7675 5.16774 31.3339 4.73432C29.9003 4.33424 28.4334 4.00084 26.8997 3.70079V3.60077Z" fill="white"/>
<path d="M38.8354 17.7035C37.0684 17.2034 35.2347 16.4699 33.3677 15.7365C33.2676 15.2697 32.8342 14.7029 32.0007 13.9695C30.8005 12.9026 28.5 12.9359 26.533 13.4027C24.3659 12.9026 22.1988 12.7025 20.1318 13.2026C3.22847 17.8702 12.797 29.2057 6.59579 40.6413C7.46263 42.5083 16.9978 53.4438 30.7672 50.5099C30.7672 50.5099 26.0662 39.2077 36.7016 33.7733C45.3366 29.3725 51.5378 21.1709 38.8354 17.7035Z" fill="#8BC53F"/>
<path d="M26.533 13.4027C27.7666 13.5027 32.2341 14.9363 33.3676 15.7365C32.4008 12.9693 29.2002 12.6025 26.533 13.4027Z" fill="#009345"/>
<path d="M40.9358 25.1383C40.9358 26.0384 39.8356 26.5052 39.2021 25.8718C38.5687 25.2383 39.0021 24.1381 39.9023 24.1047C40.469 24.1381 40.9358 24.5715 40.9358 25.1383ZM27.6999 20.4374C27.6999 22.3377 26.533 24.0714 24.766 24.8049C22.999 25.5383 20.9653 25.1383 19.5983 23.7713C18.2314 22.4044 17.8313 20.3707 18.5648 18.6037C19.2983 16.8367 21.0319 15.6698 22.9323 15.6698C24.1992 15.6698 25.3995 16.1699 26.2663 17.0367C27.1998 17.9702 27.6999 19.1705 27.6999 20.4374Z" fill="white"/>
<path d="M26.2996 20.4707C26.2996 21.8043 25.4995 23.0379 24.2325 23.538C22.999 24.0381 21.5654 23.7713 20.5985 22.8045C19.6317 21.8376 19.3649 20.4374 19.865 19.1705C20.3651 17.9369 21.5987 17.1034 22.9323 17.1034C24.7993 17.1367 26.2996 18.637 26.2996 20.4707Z" fill="#58595B"/>
<path d="M44.7699 27.2387C40.9358 29.9392 36.5683 31.9729 30.4004 31.9729C27.4999 31.9729 26.9331 28.9057 24.9994 30.406C23.9992 31.1728 20.5318 32.9065 17.7646 32.8064C14.9974 32.6731 10.5299 31.0394 9.29632 25.1716C8.79622 31.0728 8.56285 35.407 6.32908 40.3746C10.7299 47.4426 21.232 52.877 30.7672 50.5432C29.7336 43.3752 36.0015 36.3738 39.5022 32.8064C40.8691 31.4062 43.4363 29.2058 44.7699 27.2387Z" fill="#8BC53F"/>
<path d="M44.6032 27.4054C43.4029 28.5056 42.0027 29.3058 40.569 30.0059C39.1021 30.706 37.6018 31.2395 36.0348 31.6729C34.4679 32.073 32.8342 32.373 31.2006 32.2397C29.5336 32.1063 27.8666 31.5395 26.7664 30.306L26.8331 30.2393C28.1666 31.1061 29.7336 31.4062 31.2672 31.4728C32.8342 31.5062 34.4012 31.4062 35.9348 31.1061C37.4684 30.7727 39.0021 30.306 40.469 29.7058C41.936 29.1057 43.3696 28.4056 44.6365 27.4054H44.6032Z" fill="#58595B"/>
</svg>
